<?xml version="1.0" encoding="UTF-8"?>
<svg width="24px" height="24px" viewBox="0 0 24 24" version="1.1" xmlns="http://www.w3.org/2000/svg">
    <g stroke="none" stroke-width="1" fill="none" fill-rule="evenodd">
        <path d="M18.7023 13.8118L19.3433 13.4378C19.4564 13.3774 19.5361 13.2757 19.5361 13.1397C19.5361 13.0288 19.4897 12.9271 19.3766 12.8667L15.5225 10.6237C15.4427 10.5633 15.3298 10.5633 15.25 10.6237L14.6089 10.9977C14.4958 11.0581 14.4161 11.1598 14.4161 11.2958C14.4161 11.4067 14.4625 11.5084 14.5756 11.5688L18.4297 13.8118C18.5095 13.8722 18.6225 13.8722 18.7023 13.8118Z" fill="#FF9900"/>
        <path d="M13.6145 15.0907L12.3163 15.8991C12.2365 15.9595 12.1236 15.9595 12.0438 15.8991L8.18967 13.6561C8.07659 13.5957 7.99683 13.494 7.99683 13.358C7.99683 13.2471 8.04323 13.1454 8.15631 13.085L9.45453 12.2766C9.53429 12.2162 9.64737 12.2162 9.72713 12.2766L13.5812 14.5196C13.6943 14.58 13.7741 14.6817 13.7741 14.8177C13.7741 14.9286 13.7277 15.0303 13.6145 15.0907Z" fill="#FF9900"/>
        <path d="M7.95043 16.4904L7.30939 16.8644C7.19631 16.9248 7.11655 17.0265 7.11655 17.1625C7.11655 17.2734 7.16295 17.3751 7.27603 17.4355L11.1301 19.6785C11.2099 19.7389 11.3229 19.7389 11.4027 19.6785L12.0438 19.3045C12.1568 19.2441 12.2366 19.1424 12.2366 19.0064C12.2366 18.8955 12.1902 18.7938 12.0771 18.7334L8.22303 16.4904C8.14327 16.43 8.03019 16.43 7.95043 16.4904Z" fill="#FF9900"/>
        <path d="M15.5225 4.32147C15.4427 4.26107 15.3298 4.26107 15.25 4.32147L11.3959 6.56447C11.2828 6.62487 11.2031 6.72657 11.2031 6.86257C11.2031 6.97347 11.2495 7.07517 11.3626 7.13557L12.6608 7.94397C12.7406 8.00437 12.8536 8.00437 12.9334 7.94397L16.7875 5.70097C16.9006 5.64057 16.9803 5.53887 16.9803 5.40287C16.9803 5.29197 16.9339 5.19027 16.8208 5.12987L15.5225 4.32147Z" fill="#FF9900"/>
        <path d="M13.6145 8.92957L12.3163 9.73797C12.2365 9.79837 12.1236 9.79837 12.0438 9.73797L8.18967 7.49497C8.07659 7.43457 7.99683 7.33287 7.99683 7.19687C7.99683 7.08597 8.04323 6.98427 8.15631 6.92387L9.45453 6.11547C9.53429 6.05507 9.64737 6.05507 9.72713 6.11547L13.5812 8.35847C13.6943 8.41887 13.7741 8.52057 13.7741 8.65657C13.7741 8.76747 13.7277 8.86917 13.6145 8.92957Z" fill="#FF9900"/>
        <path d="M7.95043 10.3293L7.30939 10.7033C7.19631 10.7637 7.11655 10.8654 7.11655 11.0014C7.11655 11.1123 7.16295 11.214 7.27603 11.2744L11.1301 13.5174C11.2099 13.5778 11.3229 13.5778 11.4027 13.5174L12.0438 13.1434C12.1568 13.083 12.2366 12.9813 12.2366 12.8453C12.2366 12.7344 12.1902 12.6327 12.0771 12.5723L8.22303 10.3293C8.14327 10.2689 8.03019 10.2689 7.95043 10.3293Z" fill="#FF9900"/>
    </g>
</svg> 