<?xml version="1.0" encoding="UTF-8"?>
<svg width="256px" height="256px" viewBox="0 0 256 256" version="1.1" xmlns="http://www.w3.org/2000/svg">
    <g>
        <path d="M72.4,205.3c-33.6,24.8-82.3,37.9-124.3,37.9c-58.9,0-111.8-21.7-151.9-57.9c-3.1-2.8-0.3-6.6,3.4-4.4c42.9,24.9,95.9,39.9,150.7,39.9c37,0,77.7-7.7,115.2-23.6C71.3,194.5,78.2,200.7,72.4,205.3" fill="#FF9900"></path>
        <path d="M85.3,190.6c-4.3-5.5-28.5-2.6-39.3-1.3c-3.3,0.4-3.8-2.5-0.8-4.6c19.3-13.5,50.8-9.6,54.5-5.1c3.7,4.6-1,36.2-19,51.3c-2.8,2.3-5.4,1.1-4.2-2c4.1-10.2,13.3-32.9,8.8-38.3" fill="#FF9900"></path>
    </g>
</svg> 