<?xml version="1.0" encoding="UTF-8"?>
<svg width="256px" height="256px" viewBox="0 0 256 256" version="1.1" xmlns="http://www.w3.org/2000/svg">
    <g>
        <path d="M128,4C59.813,4,4,59.813,4,128s55.813,124,124,124s124-55.813,124-124S196.188,4,128,4z M128,236 c-59.844,0-108-48.156-108-108S68.156,20,128,20s108,48.156,108,108S187.844,236,128,236z" fill="#2496ED"/>
        <path d="M180,108h-32V76h32V108z M132,108h-32V76h32V108z M84,108H52V76h32V108z M156,76h32v32h-32V76z M108,76h32v32h-32V76z M60,76h32v32H60V76z M204,140c0,41.906-33.094,76-76,76s-76-34.094-76-76c0-8.281,1.313-16.281,3.75-23.781h144.5 C202.688,123.719,204,131.719,204,140z" fill="#2496ED"/>
    </g>
</svg> 