<?xml version="1.0" encoding="UTF-8"?>
<svg width="256px" height="256px" viewBox="0 0 256 256" version="1.1" xmlns="http://www.w3.org/2000/svg">
    <g>
        <path d="M170.2,85.7l17.1-17.1l0.8-6.6c-34.8-30.9-87.8-29.5-120.9,3.6c-4.4,4.4-8.3,9.2-11.7,14.3l4.8,3.7l27.7,4.7l2.2-2.2 c17.1-17.1,44.8-17.1,61.9,0l18.1,0L170.2,85.7z" fill="#EA4335"/>
        <path d="M224.3,119.1c-4.1-15.5-12.1-29.8-23.2-41.7l-35.2,35.2c7.4,11.7,9.5,26.4,5.1,39.9l0.1,0.1l17.1,17.1l6.6,0.8 C218.9,146.3,228.4,133.6,224.3,119.1z" fill="#4285F4"/>
        <path d="M86.7,224.3c33.8,14.4,73.1,5.5,97.9-19.3c4.4-4.4,8.3-9.2,11.7-14.3l-4.8-3.7l-27.7-4.7l-2.2,2.2 c-17.1,17.1-44.8,17.1-61.9,0l-18.1,0l0,0l-17.1,17.1l-0.8,6.6C71.9,216.1,79.4,221.1,86.7,224.3z" fill="#34A853"/>
        <path d="M86.7,31.7C52.9,46.1,31.7,79.9,31.7,118c0,14.6,3.1,28.7,8.9,41.7l35.2-35.2c-7.4-11.7-9.5-26.4-5.1-39.9l-0.1-0.1 L53.5,67.4l-6.6-0.8C31.1,90.7,21.6,103.4,25.7,117.9c4.1,15.5,12.1,29.8,23.2,41.7l35.2-35.2c-7.4-11.7-9.5-26.4-5.1-39.9 l-0.1-0.1l-17.1-17.1l-0.8-6.6C71.9,39.9,79.4,34.9,86.7,31.7z" fill="#FBBC05"/>
    </g>
</svg> 