<?xml version="1.0" encoding="UTF-8"?>
<svg width="24px" height="24px" viewBox="0 0 24 24" version="1.1" xmlns="http://www.w3.org/2000/svg">
    <g stroke="none" stroke-width="1" fill="none" fill-rule="evenodd">
        <path d="M15.0769 14.2885L12.5673 16.798L7.54808 16.798L10.0577 14.2885L15.0769 14.2885Z" fill="#EA4335"/>
        <path d="M10.0577 9.26923L7.54808 6.75962L12.5673 6.75962L15.0769 9.26923L10.0577 9.26923Z" fill="#4285F4"/>
        <path d="M17.5865 11.7788L20.0961 14.2885L15.0769 14.2885L12.5673 11.7788L17.5865 11.7788Z" fill="#34A853"/>
        <path d="M12.5673 11.7788L15.0769 9.26923L20.0961 9.26923L17.5865 11.7788L12.5673 11.7788Z" fill="#188038"/>
        <path d="M5.03846 11.7788L7.54808 14.2885L2.52885 14.2885L0.0192308 11.7788L5.03846 11.7788Z" fill="#FBBC04"/>
        <path d="M0.0192308 11.7788L2.52885 9.26923L7.54808 9.26923L5.03846 11.7788L0.0192308 11.7788Z" fill="#1967D2"/>
    </g>
</svg> 