<?xml version="1.0" encoding="UTF-8"?>
<svg width="256px" height="256px" viewBox="0 0 256 256" version="1.1" xmlns="http://www.w3.org/2000/svg">
    <g>
        <path d="M128,4C59.813,4,4,59.813,4,128s55.813,124,124,124s124-55.813,124-124S196.188,4,128,4z M128,236 c-59.844,0-108-48.156-108-108S68.156,20,128,20s108,48.156,108,108S187.844,236,128,236z" fill="#181717"/>
        <path d="M128,44c-46.719,0-84,37.281-84,84c0,37.375,24.25,69.125,57.875,80.375c4.25,0.781,5.813-1.844,5.813-4.094 c0-2.031-0.094-8.75-0.125-15.875c-23.562,5.125-28.531-10.031-28.531-10.031c-3.844-9.781-9.406-12.375-9.406-12.375 c-7.688-5.25,0.594-5.156,0.594-5.156c8.5,0.594,13,8.719,13,8.719c7.563,12.938,19.813,9.188,24.625,7.031 c0.75-5.469,2.938-9.219,5.375-11.344c-18.813-2.156-38.625-9.406-38.625-41.844c0-9.25,3.313-16.813,8.719-22.75 c-0.875-2.125-3.781-10.719,0.813-22.375c0,0,7.125-2.281,23.313,8.688c6.75-1.875,14-2.813,21.188-2.844 c7.188,0.031,14.438,0.969,21.188,2.844c16.188-10.969,23.313-8.688,23.313-8.688c4.594,11.656,1.688,20.25,0.813,22.375 c5.438,5.938,8.719,13.5,8.719,22.75c0,32.531-19.844,39.656-38.719,41.75c3.031,2.625,5.75,7.75,5.75,15.625 c0,11.344-0.094,20.469-0.094,23.25c0,2.25,1.531,4.906,5.844,4.063C187.781,197.094,212,165.375,212,128 C212,81.281,174.719,44,128,44z" fill="#181717"/>
    </g>
</svg> 