<?xml version="1.0" encoding="UTF-8"?>
<svg width="24px" height="24px" viewBox="0 0 24 24" version="1.1" xmlns="http://www.w3.org/2000/svg">
    <g stroke="none" stroke-width="1" fill="none" fill-rule="evenodd">
        <path d="M24,5.5 L24,18.5 C24,19.8807119 22.8807119,21 21.5,21 L2.5,21 C1.11928813,21 0,19.8807119 0,18.5 L0,5.5 C0,4.11928813 1.11928813,3 2.5,3 L21.5,3 C22.8807119,3 24,4.11928813 24,5.5 Z" fill="#E3E3E3"/>
        <path d="M22,5.5 L22,18.5 C22,18.7761424 21.7761424,19 21.5,19 L2.5,19 C2.22385763,19 2,18.7761424 2,18.5 L2,5.5 C2,5.22385763 2.22385763,5 2.5,5 L21.5,5 C21.7761424,5 22,5.22385763 22,5.5 Z" fill="#FFFFFF"/>
        <path d="M0,5.5 L0,18.5 C0,19.8807119 1.11928813,21 2.5,21 L21.5,21 C22.8807119,21 24,19.8807119 24,18.5 L24,5.5 L12,13.5 L0,5.5 Z" fill="#D54C3F"/>
        <path d="M24,5.5 L24,18.5 C24,19.8807119 22.8807119,21 21.5,21 L2.5,21 C1.11928813,21 0,19.8807119 0,18.5 L0,5.5 L12,13.5 L24,5.5 Z" fill="#B63524"/>
    </g>
</svg> 