<?xml version="1.0" encoding="UTF-8"?>
<svg width="100" height="100" viewBox="0 0 100 100" fill="none" xmlns="http://www.w3.org/2000/svg">
  <path d="M87.5 43.75V31.25L50 6.25L12.5 31.25V68.75L50 93.75L87.5 68.75V56.25H75V64.0625L50 79.6875L25 64.0625V35.9375L50 20.3125L75 35.9375V43.75H87.5Z" fill="#5F6368"/>
  <path d="M62.5 50C62.5 56.9036 56.9036 62.5 50 62.5C43.0964 62.5 37.5 56.9036 37.5 50C37.5 43.0964 43.0964 37.5 50 37.5C56.9036 37.5 62.5 43.0964 62.5 50Z" fill="#4285F4"/>
  <path d="M87.5 43.75H75V56.25H87.5V43.75Z" fill="#34A853"/>
</svg> 