<?xml version="1.0" encoding="UTF-8"?>
<svg width="256px" height="256px" viewBox="0 0 256 256" version="1.1" xmlns="http://www.w3.org/2000/svg">
    <g>
        <path d="M128,4C59.813,4,4,59.813,4,128s55.813,124,124,124s124-55.813,124-124S196.188,4,128,4z M128,236 c-59.844,0-108-48.156-108-108S68.156,20,128,20s108,48.156,108,108S187.844,236,128,236z" fill="#326CE5"/>
        <path d="M128,68c-33.137,0-60,26.863-60,60s26.863,60,60,60s60-26.863,60-60S161.137,68,128,68z M128,172 c-24.262,0-44-19.738-44-44s19.738-44,44-44s44,19.738,44,44S152.262,172,128,172z" fill="#326CE5"/>
        <path d="M128,100c-15.464,0-28,12.536-28,28s12.536,28,28,28s28-12.536,28-28S143.464,100,128,100z" fill="#326CE5"/>
    </g>
</svg> 