<?xml version="1.0" encoding="UTF-8"?>
<svg width="24px" height="24px" viewBox="0 0 24 24" version="1.1" xmlns="http://www.w3.org/2000/svg">
    <g stroke="none" stroke-width="1" fill="none" fill-rule="evenodd">
        <path d="M12.546 3C12.82 3.527 13 4.15 13 4.846C13 5.542 12.82 6.165 12.546 6.692C12.273 7.219 11.91 7.673 11.501 8.019C11.091 8.365 10.637 8.673 10.183 8.904C9.728 9.135 9.274 9.327 8.865 9.442V22C8.865 22 7.683 21.596 7.319 21.404C6.955 21.212 6.546 20.981 6.137 20.673C5.728 20.365 5.319 19.981 4.955 19.519C4.591 19.058 4.273 18.519 4 17.904C3.728 17.288 3.5 16.635 3.319 15.942C3.137 15.25 3 14.519 3 13.75C3 12.981 3.137 12.25 3.319 11.558C3.5 10.865 3.728 10.212 4 9.596C4.273 8.981 4.591 8.442 4.955 7.981C5.319 7.519 5.728 7.135 6.137 6.827C6.546 6.519 6.955 6.288 7.319 6.096C7.683 5.904 8.865 5.5 8.865 5.5C8.865 5.5 9.274 5.712 9.728 5.942C10.183 6.173 10.637 6.481 11.046 6.827C11.455 7.173 11.819 7.627 12.091 8.154C12.364 8.681 12.546 9.304 12.546 10C12.546 10.696 12.364 11.319 12.091 11.846C11.819 12.373 11.455 12.827 11.046 13.173C10.637 13.519 10.183 13.827 9.728 14.058C9.274 14.288 8.865 14.5 8.865 14.5L13.728 19.365C14.137 19.058 14.546 18.673 14.91 18.212C15.273 17.75 15.591 17.212 15.864 16.596C16.137 15.981 16.364 15.327 16.546 14.635C16.728 13.942 16.864 13.212 16.864 12.442C16.864 11.673 16.728 10.942 16.546 10.25C16.364 9.558 16.137 8.904 15.864 8.288C15.591 7.673 15.273 7.135 14.91 6.673C14.546 6.212 14.137 5.827 13.728 5.519L12.546 3Z" fill="#00ED64"/>
    </g>
</svg> 