<?xml version="1.0" encoding="UTF-8"?>
<svg width="256px" height="256px" viewBox="0 0 256 256" version="1.1" xmlns="http://www.w3.org/2000/svg" preserveAspectRatio="xMidYMid">
    <defs>
        <linearGradient x1="50%" y1="0%" x2="50%" y2="100%" id="nodejsGradient">
            <stop stop-color="#41873F" offset="0%"></stop>
            <stop stop-color="#3B8137" offset="32.88%"></stop>
            <stop stop-color="#2F7A30" offset="63.52%"></stop>
            <stop stop-color="#237328" offset="100%"></stop>
        </linearGradient>
    </defs>
    <g>
        <path d="M128,0 C126.2,0 124.4,0.4 122.8,1.2 L67.6,32.2 C64.2,34.1 62.2,37.7 62.2,41.6 L62.2,103.6 C62.2,107.5 64.2,111.1 67.6,113 L122.8,144 C124.4,144.8 126.2,145.2 128,145.2 C129.8,145.2 131.6,144.8 133.2,144 L188.4,113 C191.8,111.1 193.8,107.5 193.8,103.6 L193.8,41.6 C193.8,37.7 191.8,34.1 188.4,32.2 L133.2,1.2 C131.6,0.4 129.8,0 128,0 Z" fill="url(#nodejsGradient)"></path>
        <path d="M128,256 C126.2,256 124.4,255.6 122.8,254.8 L67.6,223.8 C64.2,221.9 62.2,218.3 62.2,214.4 L62.2,152.4 C62.2,148.5 64.2,144.9 67.6,143 L122.8,112 C124.4,111.2 126.2,110.8 128,110.8 C129.8,110.8 131.6,111.2 133.2,112 L188.4,143 C191.8,144.9 193.8,148.5 193.8,152.4 L193.8,214.4 C193.8,218.3 191.8,221.9 188.4,223.8 L133.2,254.8 C131.6,255.6 129.8,256 128,256 Z" fill="url(#nodejsGradient)"></path>
    </g>
</svg> 