<?xml version="1.0" encoding="UTF-8"?>
<svg width="24px" height="24px" viewBox="0 0 24 24" version="1.1" xmlns="http://www.w3.org/2000/svg">
    <g stroke="none" stroke-width="1" fill="none" fill-rule="evenodd">
        <path d="M20.5,10.5 C20.0876128,8.46559026 18.2896856,7 16.1666667,7 C15.0080372,7 13.9530994,7.46047164 13.1666667,8.21812764 C12.2639749,6.87845692 10.7247846,6 9,6 C6.23857625,6 4,8.23857625 4,11 C4,11.2029951 4.01732135,11.4023334 4.05089147,11.5971118 C2.26791009,12.0987768 1,13.6909011 1,15.5833333 C1,17.9225185 2.91081458,19.8333333 5.25,19.8333333 L19.0833333,19.8333333 C21.4225185,19.8333333 23.3333333,17.9225185 23.3333333,15.5833333 C23.3333333,13.2441482 21.4225185,11.3333333 19.0833333,11.3333333 C18.8803383,11.3333333 18.681,11.3506547 18.4862216,11.3842248" fill="#0364B8"/>
    </g>
</svg> 