<?xml version="1.0" encoding="UTF-8"?>
<svg width="256px" height="256px" viewBox="0 0 256 256" version="1.1" xmlns="http://www.w3.org/2000/svg">
    <g>
        <path d="M218.281,42.281C193.625,17.625,160.781,4,128,4C60.813,4,4,60.813,4,128c0,32.781,13.625,65.625,38.281,90.281 C67.938,243.938,100.781,252,128,252c67.188,0,124-56.813,124-124C252,95.219,243.938,67.938,218.281,42.281z M128,236 c-59.844,0-108-48.156-108-108S68.156,20,128,20s108,48.156,108,108S187.844,236,128,236z" fill="#EE4C2C"/>
        <circle cx="168" cy="88" r="24" fill="#EE4C2C"/>
    </g>
</svg> 