<?xml version="1.0" encoding="UTF-8"?>
<svg width="24px" height="24px" viewBox="0 0 24 24" version="1.1" xmlns="http://www.w3.org/2000/svg">
    <path fill="#61DAFB" d="M12 9.861a2.139 2.139 0 1 0 0 4.278 2.139 2.139 0 1 0 0-4.278zm-5.992 6.394c-.384.665-.713 1.3-.977 1.887-.698 1.555-.698 2.674-.22 3.107.498.45 1.628.147 3.123-.833a23.599 23.599 0 0 0 2.011-1.461 24.184 24.184 0 0 0 2.134 1.852c1.55 1.163 2.796 1.512 3.316 1.033.54-.498.462-1.731-.204-3.434-.253-.646-.573-1.333-.964-2.043a23.553 23.553 0 0 0 1.14-2.918c.587-1.847.754-3.336.388-3.838-.383-.524-1.465-.524-2.88.066-.574.24-1.17.547-1.78.91a23.502 23.502 0 0 0-1.853-.886c-1.512-.615-2.669-.698-3.09-.16-.434.55-.262 1.725.32 3.294.236.633.52 1.287.844 1.944a23.463 23.463 0 0 0-1.208 2.097zm1.871-1.383a21.275 21.275 0 0 1 1.492-2.337c.274.11.55.23.828.36.284.134.563.28.835.432a20.39 20.39 0 0 1-1.657 2.337 20.772 20.772 0 0 1-1.498-.792zm7.514-.354c.316-.502.604-1.007.857-1.51.56-1.12.873-2.076.873-2.674 0-.21-.075-.332-.19-.332-.434 0-1.194.498-2.053 1.536a19.782 19.782 0 0 0-.857 1.51c-.316.56-.604 1.12-.857 1.68a20.523 20.523 0 0 0 1.194 1.764c.857 1.037 1.617 1.535 2.053 1.535.115 0 .19-.121.19-.332 0-.598-.316-1.553-.873-2.674-.253-.503-.54-1.008-.857-1.51l.52.007zm-9.723.785c-.539 0-1.093.498-1.632 1.424-.498.873-.747 1.714-.747 2.288 0 .21.075.332.19.332.434 0 1.194-.498 2.053-1.536.857-1.037 1.289-1.93 1.289-2.528 0-.21-.075-.332-.19-.332-.115 0-.345.121-.963.352zm4.313.141l-.3.444c-.254.374-.479.714-.674 1.019a12.057 12.057 0 0 1-.725-.959 11.877 11.877 0 0 1-.665-1.018c.23-.12.454-.234.674-.34.226-.11.449-.212.668-.308.226.096.45.198.674.308.219.106.443.22.674.34l-.326.514z"/>
    <path fill="#61DAFB" d="M18.085 4.711c2.722.459 4.677 1.472 4.677 2.789 0 1.317-1.955 2.33-4.677 2.789a23.66 23.66 0 0 1-.901 2.314c1.823.502 3.375 1.224 4.433 2.11.972.819 1.445 1.66 1.445 2.462 0 .819-.498 1.68-1.508 2.52-1.067.886-2.65 1.627-4.51 2.129.316.819.585 1.627.794 2.41.498 1.87.316 3.26-.498 3.74-.819.477-2.314-.066-3.991-1.508a23.66 23.66 0 0 1-1.89-1.87 23.66 23.66 0 0 1-2.494 2.13c-1.75 1.269-3.245 1.75-4.064 1.269-.819-.477-.994-1.89-.477-3.803.208-.784.477-1.592.794-2.41-1.86-.503-3.443-1.244-4.51-2.13C.498 17.66 0 16.799 0 15.98c0-.802.473-1.643 1.445-2.462 1.058-.886 2.61-1.608 4.433-2.11a23.66 23.66 0 0 1-.901-2.314C2.255 8.535.3 7.522.3 6.205c0-1.317 1.955-2.33 4.677-2.789.316-.95.69-1.86 1.12-2.722C6.882-.602 7.776-1.1 8.595-.623c.819.477 1.508 1.89 1.89 3.803.098.492.182.996.251 1.508a23.66 23.66 0 0 1 2.853 0c.069-.512.153-1.016.251-1.508.382-1.914 1.071-3.326 1.89-3.803.819-.477 1.713.021 2.498 1.396.43.862.804 1.772 1.12 2.722l-.263.216zM13.054 12l.962-1.627c.54-.95 1.004-1.87 1.382-2.722.477-1.071.74-1.957.74-2.537 0-.208-.075-.329-.19-.329-.434 0-1.194.498-2.053 1.535-.857 1.037-1.289 1.93-1.289 2.528 0 .208.075.329.19.329.115 0 .345-.121.963-.352L13.054 12zm-2.108 0l-.962-1.627c-.54-.95-1.004-1.87-1.382-2.722-.477-1.071-.74-1.957-.74-2.537 0-.208.075-.329.19-.329.434 0 1.194.498 2.053 1.535.857 1.037 1.289 1.93 1.289 2.528 0 .208-.075.329-.19.329-.115 0-.345-.121-.963-.352L10.946 12z"/>
</svg> 