<?xml version="1.0" encoding="UTF-8"?>
<svg width="24px" height="24px" viewBox="0 0 24 24" version="1.1" xmlns="http://www.w3.org/2000/svg">
    <g stroke="none" stroke-width="1" fill="none" fill-rule="evenodd">
        <path d="M15.8295 7.5561C15.2436 7.0541 14.5097 6.7501 13.7158 6.7501C12.0859 6.7501 10.7141 7.8561 10.3502 9.3641C9.0383 9.4141 7.9265 10.3681 7.6426 11.6481C6.4907 11.8701 5.6368 12.9161 5.6368 14.1441C5.6368 15.5721 6.7986 16.7341 8.2265 16.7341H16.4033C17.6552 16.7341 18.671 15.7181 18.671 14.4661C18.671 13.3601 17.8871 12.4361 16.8513 12.2541C16.8713 12.1041 16.8813 11.9541 16.8813 11.7941C16.8813 9.4541 15.0014 7.5741 12.6615 7.5741C12.6615 7.5741 15.8295 7.5561 15.8295 7.5561Z" fill="#00A1E0"/>
    </g>
</svg> 