<?xml version="1.0" encoding="UTF-8"?>
<svg width="24px" height="24px" viewBox="0 0 24 24" version="1.1" xmlns="http://www.w3.org/2000/svg">
    <g stroke="none" stroke-width="1" fill="none" fill-rule="evenodd">
        <path d="M6.5 15.5A1.75 1.75 0 114.75 13.75H6.5v1.75zm0-4.25A1.75 1.75 0 114.75 9.5H6.5v1.75zM10.75 15.5A1.75 1.75 0 119 13.75h1.75v1.75zm0-4.25A1.75 1.75 0 119 9.5h1.75v1.75z" fill="#E01E5A"/>
        <path d="M15 15.5a1.75 1.75 0 11-1.75-1.75H15v1.75zm0-4.25a1.75 1.75 0 11-1.75-1.75H15v1.75zM19.25 15.5A1.75 1.75 0 1117.5 13.75h1.75v1.75zm0-4.25A1.75 1.75 0 1117.5 9.5h1.75v1.75z" fill="#2EB67D"/>
        <path d="M8.5 4.75A1.75 1.75 0 116.75 3v1.75h1.75zm4.25 0A1.75 1.75 0 1111 3v1.75h1.75z" fill="#ECB22E"/>
        <path d="M8.5 19.25A1.75 1.75 0 116.75 17.5v1.75h1.75zm4.25 0A1.75 1.75 0 1111 17.5v1.75h1.75z" fill="#36C5F0"/>
    </g>
</svg> 