<?xml version="1.0" encoding="UTF-8"?>
<svg width="24px" height="24px" viewBox="0 0 24 24" version="1.1" xmlns="http://www.w3.org/2000/svg">
    <g stroke="none" stroke-width="1" fill="none" fill-rule="evenodd">
        <path d="M12,2 C6.48,2 2,6.48 2,12 C2,17.52 6.48,22 12,22 C17.52,22 22,17.52 22,12 C22,6.48 17.52,2 12,2 Z M12,5 C13.66,5 15,6.34 15,8 C15,9.66 13.66,11 12,11 C10.34,11 9,9.66 9,8 C9,6.34 10.34,5 12,5 Z M12,19.2 C9.5,19.2 7.29,17.92 6,15.98 C6.03,13.99 10,12.9 12,12.9 C13.99,12.9 17.97,13.99 18,15.98 C16.71,17.92 14.5,19.2 12,19.2 Z" fill="#2196F3"/>
        <path d="M18.5,8 C19.33,8 20,8.67 20,9.5 C20,10.33 19.33,11 18.5,11 C17.67,11 17,10.33 17,9.5 C17,8.67 17.67,8 18.5,8 Z M18.5,12 C19.99,12 21.85,12.9 22,14 C21.35,15.02 20.01,15.7 18.5,15.7 C18.3,15.7 18.09,15.68 17.89,15.65 C18.04,15.13 18,14.57 17.92,14 C18.03,13.13 18.27,12.47 18.5,12 Z" fill="#2196F3" opacity="0.7"/>
        <path d="M5.5,8 C6.33,8 7,8.67 7,9.5 C7,10.33 6.33,11 5.5,11 C4.67,11 4,10.33 4,9.5 C4,8.67 4.67,8 5.5,8 Z M5.5,12 C6.01,12 7.85,12.9 8,14 C7.35,15.02 6.01,15.7 4.5,15.7 C4.3,15.7 4.09,15.68 3.89,15.65 C4.04,15.13 4,14.57 3.92,14 C4.03,13.13 4.27,12.47 5.5,12 Z" fill="#2196F3" opacity="0.7"/>
    </g>
</svg> 