<?xml version="1.0" encoding="UTF-8"?>
<svg width="24px" height="24px" viewBox="0 0 24 24" version="1.1" xmlns="http://www.w3.org/2000/svg">
    <g stroke="none" stroke-width="1" fill="none" fill-rule="evenodd">
        <path d="M12.007 2C6.474 2 2 6.477 2 12.007C2 17.54 6.477 22.014 12.007 22.014C17.537 22.014 22.014 17.537 22.014 12.007C22.014 6.477 17.537 2 12.007 2ZM12.007 20.514C7.302 20.514 3.5 16.712 3.5 12.007C3.5 7.302 7.302 3.5 12.007 3.5C16.712 3.5 20.514 7.302 20.514 12.007C20.514 16.712 16.712 20.514 12.007 20.514Z" fill="#635BFF"/>
        <path d="M13.357 10.857C13.357 10.017 12.847 9.507 11.577 9.507C10.437 9.507 9.617 9.957 9.017 10.327L9.527 11.357C10.067 11.027 10.747 10.687 11.547 10.687C12.137 10.687 12.407 10.947 12.407 11.297C12.407 11.997 10.337 11.867 10.337 13.527C10.337 14.427 11.037 15.007 12.137 15.007C12.997 15.007 13.627 14.697 14.087 14.337L13.597 13.347C13.157 13.657 12.627 13.877 12.077 13.877C11.577 13.877 11.287 13.657 11.287 13.327C11.287 12.627 13.357 12.817 13.357 10.857Z" fill="#635BFF"/>
    </g>
</svg> 