<?xml version="1.0" encoding="UTF-8"?>
<svg width="100" height="100" viewBox="0 0 100 100" fill="none" xmlns="http://www.w3.org/2000/svg">
  <path d="M85.3125 14.5312C76.0938 5.3125 63.875 0 50.9375 0C23.125 0 0.375 22.75 0.375 50.5625C0.375 59.4688 2.6875 68.1875 7.125 75.8125L0 100L24.75 93C32.0625 97.0625 41.4375 99.1875 50.9375 99.1875C78.75 99.1875 100 76.4375 100 48.625C100 35.6875 94.5312 23.75 85.3125 14.5312ZM50.9375 90.8438C43.375 90.8438 35.9375 88.875 29.375 85.125L27.8125 84.1875L12.0625 88.1875L16.125 72.8125L15.0625 71.1875C10.9375 64.375 8.71875 57.5 8.71875 50.5625C8.71875 27.4375 27.8125 8.34375 50.9375 8.34375C61.75 8.34375 71.9375 12.7188 79.5625 20.3438C87.1875 27.9688 92.0938 38.1562 92.0938 48.9688C92.0938 72.0938 74 90.8438 50.9375 90.8438ZM73.9375 61.0938C72.6875 60.4688 66.5625 57.5 65.3125 57.1562C64.0625 56.8125 63.125 56.6406 62.1875 57.8906C61.25 59.1406 58.9375 61.7812 58.125 62.7188C57.3125 63.6562 56.5 63.8281 55.25 63.2031C54 62.5781 49.875 61.0938 44.9375 56.6406C41.0938 53.1875 38.5938 48.9688 37.7812 47.7188C36.9688 46.4688 37.7812 45.7031 38.5938 44.9375C39.2188 44.2969 40.0312 43.3594 40.7812 42.5469C41.5312 41.7344 41.875 41.0469 42.2188 40.1094C42.5625 39.1719 42.2188 38.3594 41.875 37.7344C41.5312 37.1094 38.9375 30.9844 37.7812 28.4844C36.625 26.0469 35.4688 26.3906 34.5312 26.3906C33.7188 26.3906 32.7812 26.3906 31.8438 26.3906C30.9062 26.3906 29.4688 26.7344 28.2188 27.9844C26.9688 29.2344 23.8125 32.2031 23.8125 38.3281C23.8125 44.4531 28.2188 50.4062 28.9688 51.3438C29.7188 52.2812 38.5938 66.0469 52.1875 71.8594C55.25 73.2812 57.6562 74.0938 59.5312 74.7188C62.5312 75.6562 65.3125 75.5312 67.4375 75.1875C69.8125 74.8438 74.8125 72.2188 76 69.3125C77.1875 66.4062 77.1875 63.9062 76.8438 63.2031C76.5 62.5 75.1875 61.7188 73.9375 61.0938Z" fill="#25D366"/>
</svg> 