<?xml version="1.0" encoding="UTF-8"?>
<svg width="24px" height="24px" viewBox="0 0 24 24" version="1.1" xmlns="http://www.w3.org/2000/svg">
    <g stroke="none" stroke-width="1" fill="none" fill-rule="evenodd">
        <path d="M12,2 C6.48,2 2,6.48 2,12 C2,17.52 6.48,22 12,22 C17.52,22 22,17.52 22,12 C22,6.48 17.52,2 12,2 Z M12,20 C7.59,20 4,16.41 4,12 C4,7.59 7.59,4 12,4 C16.41,4 20,7.59 20,12 C20,16.41 16.41,20 12,20 Z" fill="#96588A"/>
        <path d="M9,7 L7,17 L9,17 L11,7 L9,7 Z M15,7 L13,17 L15,17 L17,7 L15,7 Z" fill="#96588A"/>
        <path d="M12,7 C10.9,7 10,7.9 10,9 C10,10.1 10.9,11 12,11 C13.1,11 14,10.1 14,9 C14,7.9 13.1,7 12,7 Z" fill="#96588A"/>
    </g>
</svg> 